<?xml version="1.0" encoding="UTF-8" standalone="no"?>
<svg
   xmlns:dc="http://purl.org/dc/elements/1.1/"
   xmlns:cc="http://creativecommons.org/ns#"
   xmlns:rdf="http://www.w3.org/1999/02/22-rdf-syntax-ns#"
   xmlns:svg="http://www.w3.org/2000/svg"
   xmlns="http://www.w3.org/2000/svg"
   xmlns:sodipodi="http://sodipodi.sourceforge.net/DTD/sodipodi-0.dtd"
   xmlns:inkscape="http://www.inkscape.org/namespaces/inkscape"
   viewBox="0 0 682.66669 682.66669"
   id="svg4136"
   version="1.1"
   inkscape:version="0.91 r13725"
   sodipodi:docname="elvanto-icon.svg">
  <metadata
     id="metadata4153">
    <rdf:RDF>
      <cc:Work
         rdf:about="">
        <dc:format>image/svg+xml</dc:format>
        <dc:type
           rdf:resource="http://purl.org/dc/dcmitype/StillImage" />
      </cc:Work>
    </rdf:RDF>
  </metadata>
  <sodipodi:namedview
     pagecolor="#ffffff"
     bordercolor="#666666"
     borderopacity="1"
     objecttolerance="10"
     gridtolerance="10"
     guidetolerance="10"
     inkscape:pageopacity="0"
     inkscape:pageshadow="2"
     inkscape:window-width="1536"
     inkscape:window-height="801"
     id="namedview4151"
     showgrid="false"
     inkscape:zoom="0.92578122"
     inkscape:cx="341.33334"
     inkscape:cy="341.33334"
     inkscape:window-x="-8"
     inkscape:window-y="-8"
     inkscape:window-maximized="1"
     inkscape:current-layer="svg4136" />
  <defs
     id="defs4138">
    <clipPath
       id="a">
      <path
         d="M0 512h512V0H0z"
         id="path4141" />
    </clipPath>
  </defs>
  <g
     clip-path="url(#a)"
     transform="matrix(1.33333 0 0 -1.33333 0 682.667)"
     id="g4145"
     style="fill:#3a3a3b;fill-opacity:1">
    <path
       d="M393.624 436.724s13.138 12.65 33.62-7.522c21.163-20.84 8.643-35.148 8.643-35.148L253.27 211.64 210.7 253.8z"
       fill="#78c14f"
       fill-rule="evenodd"
       id="path4147"
       style="fill:#3a3a3b;fill-opacity:1" />
    <path
       d="M391.935 282.168c1.99-9.306 3.068-18.95 3.11-28.845.317-77.377-62.15-140.36-139.527-140.68-77.377-.318-140.36 62.15-140.68 139.526-.318 77.376 62.15 140.36 139.527 140.68 11.845.047 23.348-1.39 34.346-4.113l43.498 43.497c-23.6 10.22-49.632 15.877-76.997 15.764-106.037-.436-191.644-86.75-191.208-192.788.436-106.037 86.75-191.644 192.79-191.208 106.036.436 191.643 86.75 191.207 192.788-.1 24.15-4.697 47.218-12.923 68.472z"
       fill="#78c14f"
       fill-rule="evenodd"
       id="path4149"
       style="fill:#3a3a3b;fill-opacity:1" />
  </g>
</svg>
