<svg xmlns="http://www.w3.org/2000/svg" xmlns:svg="http://www.w3.org/2000/svg" id="svg4136" version="1.1" viewBox="0 0 682.667 682.667"><metadata id="metadata4153"/><defs id="defs4138"><clipPath id="a"><path id="path4141" d="M0 512h512V0H0z"/></clipPath></defs><g id="g4145" clip-path="url(#a)" transform="matrix(1.33333 0 0 -1.33333 0 682.667)" style="fill:#757575;fill-opacity:1"><path id="path4147" fill="#78c14f" fill-rule="evenodd" d="M393.624 436.724s13.138 12.65 33.62-7.522c21.163-20.84 8.643-35.148 8.643-35.148L253.27 211.64 210.7 253.8z" style="fill:#757575;fill-opacity:1"/><path id="path4149" fill="#78c14f" fill-rule="evenodd" d="M391.935 282.168c1.99-9.306 3.068-18.95 3.11-28.845.317-77.377-62.15-140.36-139.527-140.68-77.377-.318-140.36 62.15-140.68 139.526-.318 77.376 62.15 140.36 139.527 140.68 11.845.047 23.348-1.39 34.346-4.113l43.498 43.497c-23.6 10.22-49.632 15.877-76.997 15.764-106.037-.436-191.644-86.75-191.208-192.788.436-106.037 86.75-191.644 192.79-191.208 106.036.436 191.643 86.75 191.207 192.788-.1 24.15-4.697 47.218-12.923 68.472z" style="fill:#757575;fill-opacity:1"/></g></svg>